<?xml version="1.0" encoding="UTF-8" standalone="no"?>
<svg
   xmlns:dc="http://purl.org/dc/elements/1.1/"
   xmlns:cc="http://creativecommons.org/ns#"
   xmlns:rdf="http://www.w3.org/1999/02/22-rdf-syntax-ns#"
   xmlns:svg="http://www.w3.org/2000/svg"
   xmlns="http://www.w3.org/2000/svg"
   viewBox="0 0 661.61249 410.875"
   height="410.875"
   width="661.61249"
   xml:space="preserve"
   version="1.1"
   id="svg2"><metadata
     id="metadata8"><rdf:RDF><cc:Work
         rdf:about=""><dc:format>image/svg+xml</dc:format><dc:type
           rdf:resource="http://purl.org/dc/dcmitype/StillImage" /></cc:Work></rdf:RDF></metadata><defs
     id="defs6" /><g
     transform="matrix(1.25,0,0,-1.25,0,410.875)"
     id="g10"><g
       transform="scale(0.1,0.1)"
       id="g12"><path
         id="path14"
         style="fill:#080604;fill-opacity:1;fill-rule:evenodd;stroke:none"
         d="m 3781.27,2033.99 c -18.71,117.84 -177.73,212.93 -288.57,155.21 0,-28.94 -0.61,-533.7 -0.61,-558.43 228.42,-94.16 331.76,135.48 289.18,403.22 z m -2288.05,447.87 c 322.7,0 1920.32,0.2 1998.25,0.2 0,-29.39 0,-123.18 0,-130.33 239.69,30.85 441.76,-105.51 465.37,-315.63 31.6,-280.38 -47.97,-562.48 -338.03,-586.27 -60.35,-5.02 -102.79,5.47 -158.55,15.89 -138.46,-297.9 -351,-524.021 -723.63,-549.38 -168.63,-11.5 -319.31,-13.641 -507.06,0 -462.22,33.699 -736.63,523 -736.01,698.47 0.34,119.21 -0.34,329.02 -0.34,463.58 0,125.99 -0.28,376.23 -0.28,385.56 0,1.29 0.28,15.23 0.28,17.91" /><path
         id="path16"
         style="fill:#080604;fill-opacity:1;fill-rule:evenodd;stroke:none"
         d="m 2653.08,3286.98 c 17.63,0 35.26,0 52.9,0 56.17,-29.67 14.02,-78.35 -10.64,-110.95 59.37,-77.25 195.47,-113.28 179.74,-238.6 -11.48,-90.61 -107.5,-105.71 -163.81,-160.88 -9.45,-28.25 46.51,-31.32 31.72,-83.24 -60.39,-63.9 -155.22,0.95 -153.2,77.7 1.25,47.83 43.62,73.14 79.12,99.87 28.58,21.39 95.45,55.71 95.12,88.78 -0.24,33.38 -62.72,67.7 -100.41,99.79 -79.4,68.09 -129.38,162.34 -10.54,227.53" /><path
         id="path18"
         style="fill:#080604;fill-opacity:1;fill-rule:evenodd;stroke:none"
         d="m 2198.13,3122.5 c 47.9,-95.39 220.42,-135.46 179.75,-274.29 -21.64,-73.42 -113.43,-90.5 -163.75,-145.61 53.93,-43.69 47.44,-117.85 -37.07,-106.35 -56.41,7.55 -86.17,67.84 -79.23,117.54 5.41,39.38 48.97,67.02 79.23,89.54 30.87,23.09 87.22,54.51 89.76,78.4 4.73,42.32 -69.59,83.71 -89.76,100.75 -38.77,32.82 -116.2,95.03 -89.82,167.97 40.96,113.09 229.78,63.81 110.89,-27.95" /><path
         id="path20"
         style="fill:#ffffff;fill-opacity:1;fill-rule:evenodd;stroke:none"
         d="m 2577.91,2316.09 c 11.88,-0.37 23.78,-0.93 35.89,-1.36 173.78,-19.49 295.66,-102.29 388.57,-199.86 93.49,-97.93 150.96,-235.7 156.81,-405.92 -0.27,-6.74 -0.44,-13.44 -0.89,-20.23 -14.2,-186.26 -96.64,-320.02 -203.36,-415.2 -107.17,-95.84 -249.67,-163.3 -444.13,-165.2 -11.44,0.38 -23.16,0.95 -34.65,1.4 -187.3,16.4 -319.15,92.08 -414.94,192.49 -95.29,99.96 -162.96,235.75 -166.4,412.2 0.62,15.13 1.29,30.32 1.97,45.45 12.17,140.64 79.05,271.9 156.31,356.2 35.16,38.31 79.67,78.54 132.42,95.09 13.91,4.31 33.18,10.17 46.99,0.5 -6.76,-33.53 -33.02,-55.16 -54.88,-74.35 -23.39,-20.51 -47.44,-38.74 -67.96,-60.66 -78.15,-83.84 -149.66,-212.51 -146.05,-372.09 1.92,-78.23 17.81,-144 44.91,-204 50.43,-111.69 135.91,-205.45 251.59,-263.71 59.22,-29.92 123.85,-51.62 206.4,-59.72 82.78,-8.13 158.05,2.36 227.19,24.33 189.33,60.41 326.42,189.55 380.35,392.54 18.59,69.03 21.19,154.91 8.1,230.61 -23.71,139.26 -91.38,244.06 -182.11,325.46 -68.51,61.42 -153.67,109.9 -256.54,137.18 -35,9.21 -72.29,12.62 -111.63,21.24 13.25,7.13 29.74,5.75 46.04,7.61" /><path
         id="path22"
         style="fill:#ffffff;fill-opacity:1;fill-rule:evenodd;stroke:none"
         d="m 2593.62,2039.2 c 23.34,5.24 44.24,-19.08 54.84,-34.49 26.25,-38.29 50.55,-103.79 43.62,-166.84 -2.5,-21.38 -11.96,-42.91 -27,-45.53 -32.8,-5.75 -61.7,43.31 -74.78,73.57 -15.94,36.87 -25.96,82.17 -23.99,118.21 1.05,21.13 6.76,50.4 27.31,55.08" /><path
         id="path24"
         style="fill:#ffffff;fill-opacity:1;fill-rule:evenodd;stroke:none"
         d="m 2318.71,1956.98 c 10.76,1.16 26.09,-6.7 35.33,-15.77 29.75,-29.36 54.88,-92.07 59.84,-145.99 3.27,-33.79 -2.7,-83.29 -29.75,-86.14 -13.02,-1.31 -28.91,9.22 -38.6,19.53 -29.36,31.28 -56.68,98.92 -58.21,159.04 -0.79,30.51 6.54,66.49 31.39,69.33" /><path
         id="path26"
         style="fill:#ffffff;fill-opacity:1;fill-rule:evenodd;stroke:none"
         d="m 2981.41,1739.48 c -14.2,-4.98 -34.65,-2.61 -54.76,-0.33 5.46,-32.52 13.39,-69.73 9.23,-111.76 -11.54,-113.21 -59.96,-196.39 -123.63,-254.75 -63.44,-58.37 -145.49,-98.67 -242.24,-108.86 -115.56,-12.17 -217.38,25.81 -290.01,77.3 -73.2,51.84 -122.89,119.97 -153.89,205.5 -20.9,-14.37 -41.24,18.71 -40.96,39.5 0.4,18.26 13.07,37.98 23.33,48.69 21.12,21.92 56.4,28.51 87.11,20.2 0,-22.21 -10.42,-41.98 -18.14,-59 0.11,-5.45 -4.96,-4.62 -10.15,-3.76 26.15,-15.02 29.98,-49.88 44.52,-76.34 46.04,-84.75 130.67,-164.31 258.35,-183.52 53.53,-8.01 104.3,-2.76 149.21,9.01 86.09,22.59 148.42,72.75 201.66,139.8 25.08,31.44 46.48,74.16 61.99,117.69 16.51,46.37 19.71,99.7 21.08,158.36 -10.08,0.67 -14.94,7.21 -24.36,11.02 -13.28,5.41 -26.46,5.21 -28.44,18.73 -3.04,19.16 20.78,36.6 36.84,38.71 59.9,8.26 93.71,-43.56 93.26,-86.19" /><path
         id="path28"
         style="fill:#080604;fill-opacity:1;fill-rule:nonzero;stroke:none"
         d="M 349.145,5.53125 C 253.355,5.53125 171.648,39.9102 103.98,108.66 36.3086,177.461 2.5,260.73 2.5,358.73 c 0,104.579 36.5664,190.122 109.539,256.551 73.078,66.43 162.106,99.559 267.254,99.559 l 153.773,0 0,-40.121 C 380.648,674.719 270.203,659.23 201.801,628.41 94.3477,580.738 40.707,487.809 40.707,349.66 40.707,220.898 95.6992,133 205.801,86 274.941,56.4219 384.027,41.7188 533.066,41.7188 l 0,-36.18755 -183.921,0" /><path
         id="path30"
         style="fill:none;stroke:#080604;stroke-width:5;stroke-linecap:butt;stroke-linejoin:miter;stroke-miterlimit:10;stroke-dasharray:none;stroke-opacity:1"
         d="M 349.145,5.53125 C 253.355,5.53125 171.648,39.9102 103.98,108.66 36.3086,177.461 2.5,260.73 2.5,358.73 c 0,104.579 36.5664,190.122 109.539,256.551 73.078,66.43 162.106,99.559 267.254,99.559 l 153.773,0 0,-40.121 C 380.648,674.719 270.203,659.23 201.801,628.41 94.3477,580.738 40.707,487.809 40.707,349.66 40.707,220.898 95.6992,133 205.801,86 274.941,56.4219 384.027,41.7188 533.066,41.7188 l 0,-36.18755 -183.921,0 z" /><path
         id="path32"
         style="fill:#080604;fill-opacity:1;fill-rule:nonzero;stroke:none"
         d="m 885.684,8.58203 c -75.782,0 -137.711,20.05857 -185.942,60.40627 -50.148,42.2737 -75.332,100.9807 -75.332,176.2027 0,67.789 24.789,124.469 74.317,170.168 49.586,45.582 108.582,68.461 176.925,68.461 l 160.768,0 -1.02,-38.269 -126.611,0 c -52.289,0 -96.465,-7.371 -132.582,-22.36 -36.234,-14.941 -63.73,-43.949 -82.437,-87.109 l 342.65,0 0,-42.152 -362.768,0 -4.957,-44.41 c 0,-65.918 20,-116.079 60.235,-150.3286 32.121,-26.1992 79.336,-42.3906 141.656,-48.4023 2.707,0 22.426,-0.7305 59.219,-2.0899 36.968,-1.289 72.465,-1.957 106.615,-1.957 l 0,-38.16017 -150.736,0" /><path
         id="path34"
         style="fill:none;stroke:#080604;stroke-width:5;stroke-linecap:butt;stroke-linejoin:miter;stroke-miterlimit:10;stroke-dasharray:none;stroke-opacity:1"
         d="m 885.684,8.58203 c -75.782,0 -137.711,20.05857 -185.942,60.40627 -50.148,42.2737 -75.332,100.9807 -75.332,176.2027 0,67.789 24.789,124.469 74.317,170.168 49.586,45.582 108.582,68.461 176.925,68.461 l 160.768,0 -1.02,-38.269 -126.611,0 c -52.289,0 -96.465,-7.371 -132.582,-22.36 -36.234,-14.941 -63.73,-43.949 -82.437,-87.109 l 342.65,0 0,-42.152 -362.768,0 -4.957,-44.41 c 0,-65.918 20,-116.079 60.235,-150.3286 32.121,-26.1992 79.336,-42.3906 141.656,-48.4023 2.707,0 22.426,-0.7305 59.219,-2.0899 36.968,-1.289 72.465,-1.957 106.615,-1.957 l 0,-38.16017 -150.736,0 z" /><path
         id="path36"
         style="fill:#080604;fill-opacity:1;fill-rule:nonzero;stroke:none"
         d="m 1174.01,8.58203 0,464.18797 40.24,0 0,-464.18797 -40.24,0 z m 22.15,660.11697 c -5.74,0 -11.27,2.301 -16.34,7.031 -3.89,5.309 -5.81,10.711 -5.81,16.059 0,5.93 2.09,11.84 6.32,17.59 4.05,5.691 9.46,8.5 15.83,8.5 15.38,0 23.04,-8.379 23.04,-25.059 0,-16.058 -7.66,-24.121 -23.04,-24.121" /><path
         id="path38"
         style="fill:none;stroke:#080604;stroke-width:5;stroke-linecap:butt;stroke-linejoin:miter;stroke-miterlimit:10;stroke-dasharray:none;stroke-opacity:1"
         d="m 1174.01,8.58203 0,464.18797 40.24,0 0,-464.18797 -40.24,0 z m 22.15,660.11697 c -5.74,0 -11.27,2.301 -16.34,7.031 -3.89,5.309 -5.81,10.711 -5.81,16.059 0,5.93 2.09,11.84 6.32,17.59 4.05,5.691 9.46,8.5 15.83,8.5 15.38,0 23.04,-8.379 23.04,-25.059 0,-16.058 -7.66,-24.121 -23.04,-24.121 z" /><path
         id="path40"
         style="fill:#080604;fill-opacity:1;fill-rule:nonzero;stroke:none"
         d="m 1379.01,8.58203 40.2266,0 0,720.406 -40.2266,0 0,-720.406 z" /><path
         id="path42"
         style="fill:none;stroke:#080604;stroke-width:5;stroke-linecap:butt;stroke-linejoin:miter;stroke-miterlimit:10;stroke-dasharray:none;stroke-opacity:1"
         d="m 1379.01,8.58203 40.2266,0 0,720.406 -40.2266,0 0,-720.406 z" /><path
         id="path44"
         style="fill:#080604;fill-opacity:1;fill-rule:nonzero;stroke:none"
         d="m 1843.09,568.41 -119.46,25.852 c -14.31,0 -24.4,-8.633 -30.15,-25.852 l -56.12,0 c 0,20.988 6.76,40 20.11,56.77 13.47,16.742 30.26,25.199 50.44,25.199 26.82,0 67.55,-12.957 122.27,-38.891 22.03,5.75 35.89,18.711 41.7,38.891 l 46.03,0 1.41,-11.539 c 0,-35.899 -25.41,-59.34 -76.23,-70.43 z m 78.82,-275.73 -197.55,0 c -35.95,0 -67.68,-12.5 -95.17,-37.629 -27.5,-25.129 -41.25,-55.34 -41.25,-90.61 0,-41.41 13.92,-72.9722 41.76,-94.6715 24.45,-20.3984 58.03,-30.5195 100.8,-30.5195 l 191.41,0 0,253.43 z M 1701.99,2.55859 c -44.12,0 -80.64,17.53121 -109.43,52.62111 -28.9,35.1094 -43.27,75.5703 -43.27,121.4293 0,62.09 28.79,106.27 86.49,132.539 41.42,17.571 100.81,26.372 178.23,26.372 l 107.9,0 c 0,29.851 -9.35,55.429 -28,76.851 -18.71,21.348 -42.94,32.059 -72.8,32.059 l -229.05,0 0,40.742 209.72,1.008 c 45.48,0 83.62,-12.961 114.49,-38.711 30.89,-25.797 46.38,-61.469 46.38,-106.891 l 0,-338.01941 -260.66,0" /><path
         id="path46"
         style="fill:none;stroke:#080604;stroke-width:5;stroke-linecap:butt;stroke-linejoin:miter;stroke-miterlimit:10;stroke-dasharray:none;stroke-opacity:1"
         d="m 1843.09,568.41 -119.46,25.852 c -14.31,0 -24.4,-8.633 -30.15,-25.852 l -56.12,0 c 0,20.988 6.76,40 20.11,56.77 13.47,16.742 30.26,25.199 50.44,25.199 26.82,0 67.55,-12.957 122.27,-38.891 22.03,5.75 35.89,18.711 41.7,38.891 l 46.03,0 1.41,-11.539 c 0,-35.899 -25.41,-59.34 -76.23,-70.43 z m 78.82,-275.73 -197.55,0 c -35.95,0 -67.68,-12.5 -95.17,-37.629 -27.5,-25.129 -41.25,-55.34 -41.25,-90.61 0,-41.41 13.92,-72.9722 41.76,-94.6715 24.45,-20.3984 58.03,-30.5195 100.8,-30.5195 l 191.41,0 0,253.43 z M 1701.99,2.55859 c -44.12,0 -80.64,17.53121 -109.43,52.62111 -28.9,35.1094 -43.27,75.5703 -43.27,121.4293 0,62.09 28.79,106.27 86.49,132.539 41.42,17.571 100.81,26.372 178.23,26.372 l 107.9,0 c 0,29.851 -9.35,55.429 -28,76.851 -18.71,21.348 -42.94,32.059 -72.8,32.059 l -229.05,0 0,40.742 209.72,1.008 c 45.48,0 83.62,-12.961 114.49,-38.711 30.89,-25.797 46.38,-61.469 46.38,-106.891 l 0,-338.01941 -260.66,0 z" /><path
         id="path48"
         style="fill:#080604;fill-opacity:1;fill-rule:nonzero;stroke:none"
         d="m 2302.31,450.57 c -55.55,0 -103.34,-20.172 -143.23,-60.558 -39.78,-40.41 -59.73,-88.422 -59.73,-143.871 0,-56.11 19.66,-104.36 58.77,-144.801 39.28,-40.4689 87.17,-60.6291 144.19,-60.6291 55.56,0 103.34,20.1602 143.24,60.6291 39.78,40.441 59.78,88.691 59.78,144.801 0,54.148 -20,101.757 -59.78,142.839 -39.9,41.09 -87.68,61.59 -143.24,61.59 z m 0,-448.07 c -66.94,0 -124.24,23.7813 -171.74,71.3398 -47.62,47.5512 -71.4,104.8012 -71.4,171.8512 0,66.93 23.78,124.528 71.4,172.75 47.5,48.25 104.8,72.368 171.74,72.368 66.32,0 123.63,-24.348 171.86,-72.86 48.07,-48.527 72.29,-105.988 72.29,-172.258 0,-66.261 -24,-123.402 -71.84,-171.2926 C 2426.73,26.5 2369.31,2.5 2302.31,2.5" /><path
         id="path50"
         style="fill:none;stroke:#080604;stroke-width:5;stroke-linecap:butt;stroke-linejoin:miter;stroke-miterlimit:10;stroke-dasharray:none;stroke-opacity:1"
         d="m 2302.31,450.57 c -55.55,0 -103.34,-20.172 -143.23,-60.558 -39.78,-40.41 -59.73,-88.422 -59.73,-143.871 0,-56.11 19.66,-104.36 58.77,-144.801 39.28,-40.4689 87.17,-60.6291 144.19,-60.6291 55.56,0 103.34,20.1602 143.24,60.6291 39.78,40.441 59.78,88.691 59.78,144.801 0,54.148 -20,101.757 -59.78,142.839 -39.9,41.09 -87.68,61.59 -143.24,61.59 z m 0,-448.07 c -66.94,0 -124.24,23.7813 -171.74,71.3398 -47.62,47.5512 -71.4,104.8012 -71.4,171.8512 0,66.93 23.78,124.528 71.4,172.75 47.5,48.25 104.8,72.368 171.74,72.368 66.32,0 123.63,-24.348 171.86,-72.86 48.07,-48.527 72.29,-105.988 72.29,-172.258 0,-66.261 -24,-123.402 -71.84,-171.2926 C 2426.73,26.5 2369.31,2.5 2302.31,2.5 Z" /><path
         id="path52"
         style="fill:#080604;fill-opacity:1;fill-rule:nonzero;stroke:none"
         d="m 2883.99,358.73 c 0,-95.968 35.21,-172.82 105.43,-230.468 65.64,-53.7425 147.79,-80.4612 246.23,-80.4612 l 106.56,0 0,392.7302 -136.72,0 0,40.239 176.84,0 0,-475.23875 -137.72,0 c -114.39,0 -208.94,30.21875 -283.26,90.50785 -79.1,65.1409 -118.55,153.9409 -118.55,266.7499 0,103.902 37.48,189.43 112.58,256.481 72.96,63.742 161.6,95.57 266.13,95.57 l 164.92,0 0,-38.078 -174.9,0 c -88.36,0 -165.1,-30.782 -230.12,-92.203 -64.98,-61.418 -97.42,-136.629 -97.42,-225.829" /><path
         id="path54"
         style="fill:none;stroke:#080604;stroke-width:5;stroke-linecap:butt;stroke-linejoin:miter;stroke-miterlimit:10;stroke-dasharray:none;stroke-opacity:1"
         d="m 2883.99,358.73 c 0,-95.968 35.21,-172.82 105.43,-230.468 65.64,-53.7425 147.79,-80.4612 246.23,-80.4612 l 106.56,0 0,392.7302 -136.72,0 0,40.239 176.84,0 0,-475.23875 -137.72,0 c -114.39,0 -208.94,30.21875 -283.26,90.50785 -79.1,65.1409 -118.55,153.9409 -118.55,266.7499 0,103.902 37.48,189.43 112.58,256.481 72.96,63.742 161.6,95.57 266.13,95.57 l 164.92,0 0,-38.078 -174.9,0 c -88.36,0 -165.1,-30.782 -230.12,-92.203 -64.98,-61.418 -97.42,-136.629 -97.42,-225.829 z" /><path
         id="path56"
         style="fill:#080604;fill-opacity:1;fill-rule:nonzero;stroke:none"
         d="m 3707.9,450.57 c -55.63,0 -103.4,-20.172 -143.13,-60.558 -39.94,-40.41 -59.78,-88.422 -59.78,-143.871 0,-56.11 19.55,-104.36 58.61,-144.801 39.28,-40.4689 87.38,-60.6291 144.3,-60.6291 55.44,0 103.34,20.1602 143.12,60.6291 39.82,40.441 59.88,88.691 59.88,144.801 0,54.148 -20.06,101.757 -59.88,142.839 -39.78,41.09 -87.68,61.59 -143.12,61.59 z m 0,-448.07 c -67.06,0 -124.3,23.7813 -171.86,71.3398 -47.56,47.5512 -71.35,104.8012 -71.35,171.8512 0,66.93 23.79,124.528 71.35,172.75 47.56,48.25 104.8,72.368 171.86,72.368 66.32,0 123.51,-24.348 171.69,-72.86 48.4,-48.527 72.47,-105.988 72.47,-172.258 0,-66.261 -24.01,-123.402 -71.9,-171.2926 C 3832.25,26.5 3774.89,2.5 3707.9,2.5" /><path
         id="path58"
         style="fill:none;stroke:#080604;stroke-width:5;stroke-linecap:butt;stroke-linejoin:miter;stroke-miterlimit:10;stroke-dasharray:none;stroke-opacity:1"
         d="m 3707.9,450.57 c -55.63,0 -103.4,-20.172 -143.13,-60.558 -39.94,-40.41 -59.78,-88.422 -59.78,-143.871 0,-56.11 19.55,-104.36 58.61,-144.801 39.28,-40.4689 87.38,-60.6291 144.3,-60.6291 55.44,0 103.34,20.1602 143.12,60.6291 39.82,40.441 59.88,88.691 59.88,144.801 0,54.148 -20.06,101.757 -59.88,142.839 -39.78,41.09 -87.68,61.59 -143.12,61.59 z m 0,-448.07 c -67.06,0 -124.3,23.7813 -171.86,71.3398 -47.56,47.5512 -71.35,104.8012 -71.35,171.8512 0,66.93 23.79,124.528 71.35,172.75 47.56,48.25 104.8,72.368 171.86,72.368 66.32,0 123.51,-24.348 171.69,-72.86 48.4,-48.527 72.47,-105.988 72.47,-172.258 0,-66.261 -24.01,-123.402 -71.9,-171.2926 C 3832.25,26.5 3774.89,2.5 3707.9,2.5 Z" /><path
         id="path60"
         style="fill:#080604;fill-opacity:1;fill-rule:nonzero;stroke:none"
         d="m 4293.62,5.53125 -247.13,0 0,40.17965 253.22,0 c 32.74,0 61.64,12.8008 86.43,38.2579 24.8,25.5902 37.15,54.8832 37.15,87.9102 0,57.762 -23.17,95.453 -69.36,112.922 -24.75,8.73 -71.97,13.14 -141.66,13.14 -51.58,0 -88.14,4.329 -109.55,13.059 -34.82,14.031 -52.23,42.879 -52.23,86.379 0,25.351 10.53,46.769 31.72,63.781 21.08,17.141 44.63,25.59 70.76,25.59 l 264.22,0 0,-38.211 -266.19,0 c -16.83,0 -31.66,-5.289 -44.73,-16 -13,-10.699 -19.57,-24.109 -19.57,-40.23 0,-34.821 30.43,-52.188 91.41,-52.188 l 42.15,2.93 34.16,0 c 57.64,0 105.58,-12.051 143.79,-36.281 43.49,-28.051 65.25,-71.098 65.25,-128.93 0,-46.988 -16.79,-87.4416 -50.21,-121.4806 -33.52,-33.918 -73.36,-50.82815 -119.63,-50.82815" /><path
         id="path62"
         style="fill:none;stroke:#080604;stroke-width:5;stroke-linecap:butt;stroke-linejoin:miter;stroke-miterlimit:10;stroke-dasharray:none;stroke-opacity:1"
         d="m 4293.62,5.53125 -247.13,0 0,40.17965 253.22,0 c 32.74,0 61.64,12.8008 86.43,38.2579 24.8,25.5902 37.15,54.8832 37.15,87.9102 0,57.762 -23.17,95.453 -69.36,112.922 -24.75,8.73 -71.97,13.14 -141.66,13.14 -51.58,0 -88.14,4.329 -109.55,13.059 -34.82,14.031 -52.23,42.879 -52.23,86.379 0,25.351 10.53,46.769 31.72,63.781 21.08,17.141 44.63,25.59 70.76,25.59 l 264.22,0 0,-38.211 -266.19,0 c -16.83,0 -31.66,-5.289 -44.73,-16 -13,-10.699 -19.57,-24.109 -19.57,-40.23 0,-34.821 30.43,-52.188 91.41,-52.188 l 42.15,2.93 34.16,0 c 57.64,0 105.58,-12.051 143.79,-36.281 43.49,-28.051 65.25,-71.098 65.25,-128.93 0,-46.988 -16.79,-87.4416 -50.21,-121.4806 -33.52,-33.918 -73.36,-50.82815 -119.63,-50.82815 z" /><path
         id="path64"
         style="fill:#080604;fill-opacity:1;fill-rule:nonzero;stroke:none"
         d="m 4598.91,439.531 0,-274.972 c 0,-59.727 13.81,-97.0277 41.25,-111.7973 17.46,-8.6719 58.32,-13.0703 122.62,-13.0703 l 0,-34.16015 -79.36,0 c -84.51,0 -126.6,55.00005 -126.6,164.98875 l 0,558.468 42.09,0 0,-248.218 167.87,0 0,-41.239 -167.87,0" /><path
         id="path66"
         style="fill:none;stroke:#080604;stroke-width:5;stroke-linecap:butt;stroke-linejoin:miter;stroke-miterlimit:10;stroke-dasharray:none;stroke-opacity:1"
         d="m 4598.91,439.531 0,-274.972 c 0,-59.727 13.81,-97.0277 41.25,-111.7973 17.46,-8.6719 58.32,-13.0703 122.62,-13.0703 l 0,-34.16015 -79.36,0 c -84.51,0 -126.6,55.00005 -126.6,164.98875 l 0,558.468 42.09,0 0,-248.218 167.87,0 0,-41.239 -167.87,0 z" /><path
         id="path68"
         style="fill:#080604;fill-opacity:1;fill-rule:nonzero;stroke:none"
         d="m 5046.2,450.57 c -55.67,0 -103.4,-20.172 -143.13,-60.558 -40,-40.41 -59.78,-88.422 -59.78,-143.871 0,-56.11 19.45,-104.36 58.61,-144.801 39.28,-40.4689 87.38,-60.6291 144.3,-60.6291 55.45,0 103.34,20.1602 143.18,60.6291 39.82,40.441 59.73,88.691 59.73,144.801 0,54.148 -19.91,101.757 -59.73,142.839 -39.84,41.09 -87.73,61.59 -143.18,61.59 z m 0,-448.07 c -67,0 -124.36,23.7813 -171.86,71.3398 -47.62,47.5512 -71.35,104.8012 -71.35,171.8512 0,66.93 23.73,124.528 71.35,172.75 47.5,48.25 104.86,72.368 171.86,72.368 66.15,0 123.45,-24.348 171.85,-72.86 48.13,-48.527 72.31,-105.988 72.31,-172.258 0,-66.261 -24.07,-123.402 -71.96,-171.2926 C 5170.49,26.5 5113.15,2.5 5046.2,2.5" /><path
         id="path70"
         style="fill:none;stroke:#080604;stroke-width:5;stroke-linecap:butt;stroke-linejoin:miter;stroke-miterlimit:10;stroke-dasharray:none;stroke-opacity:1"
         d="m 5046.2,450.57 c -55.67,0 -103.4,-20.172 -143.13,-60.558 -40,-40.41 -59.78,-88.422 -59.78,-143.871 0,-56.11 19.45,-104.36 58.61,-144.801 39.28,-40.4689 87.38,-60.6291 144.3,-60.6291 55.45,0 103.34,20.1602 143.18,60.6291 39.82,40.441 59.73,88.691 59.73,144.801 0,54.148 -19.91,101.757 -59.73,142.839 -39.84,41.09 -87.73,61.59 -143.18,61.59 z m 0,-448.07 c -67,0 -124.36,23.7813 -171.86,71.3398 -47.62,47.5512 -71.35,104.8012 -71.35,171.8512 0,66.93 23.73,124.528 71.35,172.75 47.5,48.25 104.86,72.368 171.86,72.368 66.15,0 123.45,-24.348 171.85,-72.86 48.13,-48.527 72.31,-105.988 72.31,-172.258 0,-66.261 -24.07,-123.402 -71.96,-171.2926 C 5170.49,26.5 5113.15,2.5 5046.2,2.5 Z" /></g></g></svg>